<svg width="123" height="92" viewBox="0 0 123 92" fill="none" xmlns="http://www.w3.org/2000/svg">
<g filter="url(#filter0_d_2033_49925)">
<path fill-rule="evenodd" clip-rule="evenodd" d="M12.4031 43.1674L12.1946 43.0108C11.3986 42.4127 10.785 41.5616 10.5036 40.5331L0.440772 9.93321C0.222515 9.3706 0.157838 8.8496 0.145994 8.45971C0.117047 7.50683 0.381264 6.12661 1.5601 5.0524C2.62756 4.07967 3.85736 3.90904 4.53815 3.88836L12.4446 3.64818C13.2986 3.62223 14.4046 3.81212 15.4079 4.57797C16.2491 5.22005 16.7133 6.03455 16.9613 6.74732C17.181 5.97001 17.632 5.10338 18.4791 4.4139C19.4465 3.62639 20.5227 3.40278 21.3278 3.37832L28.1181 3.17205C28.9721 3.1461 30.078 3.33599 31.0814 4.10185C31.8681 4.70235 32.3251 5.45366 32.5838 6.13152C32.8009 5.4392 33.2115 4.66154 33.9603 4.01439C34.9153 3.18904 36.0077 2.93238 36.8617 2.90643L44.8147 2.66484C45.3703 2.64796 46.1296 2.73187 46.8835 3.07182C47.5819 2.70329 48.3079 2.55872 48.9318 2.53977L56.2802 2.31654C57.0343 2.29363 57.9485 2.44487 58.8047 2.9575C59.6282 2.39384 60.5315 2.18739 61.2857 2.16448L68.3085 1.95114C69.9936 1.89995 71.5832 2.68084 72.5403 4.17152L72.5449 4.17858L75.147 8.25059L75.0828 6.32875L75.0826 6.32293C75.0527 5.33663 75.3206 4.07682 76.3051 3.03065C77.2895 1.98447 78.5308 1.64061 79.5171 1.61064L86.8654 1.38742C87.8517 1.35745 89.1115 1.62534 90.1577 2.60983C91.1019 3.49829 91.474 4.59585 91.5596 5.52643C92.583 4.44535 93.7673 3.51935 95.1024 2.75585L95.1135 2.74949L95.1247 2.7432C97.6712 1.30911 100.534 0.599775 103.607 0.506437C106.607 0.415283 109.45 0.931544 112.049 2.1492C114.598 3.31349 116.715 5.01966 118.255 7.29864C119.805 9.54662 120.639 12.077 120.722 14.8054L120.723 14.8519C120.743 15.4779 120.642 16.2141 120.314 16.9359C120.685 17.6365 120.83 18.3652 120.849 18.9912L121.043 25.3629C121.132 28.2875 120.517 31.0524 119.117 33.5497C117.745 36.0516 115.74 38.004 113.213 39.3882C110.701 40.78 107.88 41.4662 104.854 41.5581C101.781 41.6514 98.8805 41.1172 96.2516 39.8403L96.2401 39.8347L96.2286 39.8291C94.8496 39.148 93.6113 38.2956 92.5242 37.2786C92.4952 38.2127 92.1904 39.3308 91.3019 40.2749C90.3174 41.3211 89.0762 41.665 88.0899 41.6949L81.0671 41.9083C79.382 41.9595 77.7924 41.1786 76.8352 39.6879L74.2233 35.6199L74.2926 37.5249L74.2929 37.5365C74.3229 38.5228 74.055 39.7826 73.0705 40.8288C72.086 41.875 70.8448 42.2188 69.8585 42.2488L62.5101 42.472C61.7559 42.4949 60.8418 42.3437 59.9856 41.831C59.1621 42.3947 58.2588 42.6012 57.5046 42.6241L50.1563 42.8473C49.17 42.8773 47.9102 42.6094 46.864 41.6249C45.8178 40.6404 45.4739 39.3992 45.444 38.4129L45.08 26.4327L42.0145 39.5665C41.8441 40.3516 41.4338 41.3325 40.5225 42.1201C39.5674 42.9455 38.4751 43.2022 37.6211 43.2281L30.1797 43.4542C29.3746 43.4786 28.2868 43.3207 27.2733 42.5934C26.7249 42.1998 26.3234 41.7295 26.0337 41.2476C25.8151 41.6693 25.5122 42.0966 25.0936 42.4859C24.1405 43.3724 23.0092 43.672 22.0872 43.7L15.1574 43.9105C14.2903 43.9368 13.4203 43.7365 12.6307 43.2948L12.4031 43.1674ZM25.1392 23.109C25.1674 23.0151 25.2125 22.9672 25.2745 22.9653C25.3365 22.9634 25.3845 23.0085 25.4183 23.1006L29.2529 38.9978C29.3582 39.3981 29.6279 39.5916 30.0619 39.5784L37.5033 39.3524C37.9064 39.3401 38.1483 39.1311 38.2291 38.7252L45.5611 7.31284C45.5681 7.28056 45.5736 7.24936 45.5776 7.21923C45.6045 7.01618 45.5624 6.86228 45.4511 6.75756C45.3534 6.60536 45.1805 6.53303 44.9324 6.54056L36.9794 6.78216C36.5764 6.7944 36.3344 7.00347 36.2537 7.40938L33.2261 22.6772C33.1989 22.8021 33.1542 22.8656 33.0922 22.8674C33.0302 22.8693 32.9818 22.8087 32.947 22.6856L28.9983 7.62978C28.893 7.22953 28.6389 7.03553 28.2358 7.04777L21.4455 7.25405C21.0114 7.26723 20.754 7.47678 20.6732 7.88268L18.0178 23.1392C17.9905 23.2641 17.9459 23.3276 17.8839 23.3294C17.8209 23.3003 17.7725 23.2397 17.7387 23.1476L13.3249 8.10591C13.2196 7.70566 12.9654 7.51166 12.5624 7.5239L4.65589 7.76408C4.22181 7.77727 4.01042 7.9699 4.02172 8.34197C4.02454 8.43499 4.0424 8.51203 4.07529 8.5731L14.2306 39.4542C14.2673 39.6393 14.365 39.7915 14.5238 39.9108C14.6817 39.9991 14.8536 40.0404 15.0396 40.0348L21.9694 39.8243C22.3725 39.812 22.614 39.5874 22.6938 39.1505L25.1392 23.109ZM49.0495 6.41549C48.8325 6.42208 48.6638 6.48928 48.5436 6.61707C48.4233 6.74486 48.3665 6.91727 48.3731 7.13431L49.3197 38.2951C49.3263 38.5122 49.3935 38.6808 49.5213 38.8011C49.6491 38.9213 49.8215 38.9782 50.0385 38.9716L57.3869 38.7483C57.5774 38.7426 57.7307 38.6901 57.8466 38.5909C57.8627 38.5771 57.8782 38.5624 57.8928 38.5468C58.0131 38.419 58.0699 38.2466 58.0633 38.0295L57.1167 6.8687C57.1101 6.65166 57.0429 6.48301 56.9151 6.36276C56.8995 6.34807 56.8833 6.33434 56.8663 6.32155C56.7446 6.22957 56.5884 6.18647 56.3979 6.19226L49.0495 6.41549ZM61.9239 38.467C62.0457 38.559 62.2018 38.6021 62.3924 38.5963L69.7408 38.3731C69.9578 38.3665 70.1264 38.2993 70.2467 38.1715C70.367 38.0437 70.4238 37.8713 70.4172 37.6542L69.8537 22.1697C69.8499 22.0456 69.8791 21.9827 69.9411 21.9808C70.0021 21.9479 70.0651 21.977 70.1299 22.0682L80.0981 37.5929C80.2935 37.8973 80.5773 38.0439 80.9494 38.0326L87.9722 37.8192C88.1892 37.8126 88.3579 37.7454 88.4781 37.6176C88.5984 37.4899 88.6552 37.3174 88.6486 37.1004L87.702 5.93958C87.6954 5.72254 87.6282 5.55389 87.5004 5.43363C87.3726 5.31338 87.2002 5.25655 86.9832 5.26314L79.6348 5.48637C79.4178 5.49296 79.2491 5.56015 79.1289 5.68795C79.0086 5.81574 78.9518 5.98815 78.9584 6.20519L79.4754 21.6912C79.4791 21.8152 79.4505 21.8937 79.3894 21.9265C79.3274 21.9284 79.264 21.8838 79.1991 21.7927L69.2775 6.26652C69.082 5.96211 68.7983 5.81556 68.4262 5.82686L61.4034 6.0402C61.2128 6.04599 61.0596 6.09849 60.9437 6.19769C60.9275 6.21149 60.9121 6.22618 60.8975 6.24178C60.7772 6.36957 60.7204 6.54199 60.727 6.75903L61.6736 37.9199C61.6802 38.1369 61.7473 38.3055 61.8751 38.4258C61.8907 38.4405 61.907 38.4542 61.9239 38.467ZM92.3154 30.1034C92.5791 30.8276 92.9083 31.5145 93.3029 32.1642C94.4446 33.9916 95.9922 35.3877 97.9457 36.3525C99.9301 37.3163 102.194 37.7596 104.736 37.6824C107.248 37.6061 109.449 37.0427 111.342 35.9921C113.265 34.9405 114.726 33.4996 115.726 31.6692C116.756 29.8379 117.237 27.7751 117.167 25.4806L116.974 19.109C116.967 18.8919 116.9 18.7233 116.772 18.603C116.644 18.4828 116.472 18.4259 116.255 18.4325L104.116 18.8013C104.055 18.8031 103.999 18.8096 103.946 18.8209C103.809 18.85 103.697 18.9106 103.61 19.0028C103.49 19.1306 103.433 19.3031 103.439 19.5201L103.609 25.1011C103.616 25.3182 103.683 25.4868 103.811 25.6071C103.848 25.6423 103.889 25.6721 103.934 25.6964C104.001 25.7322 104.075 25.7563 104.158 25.7685C104.211 25.7764 104.268 25.7794 104.328 25.7776L108.421 25.6532C108.576 25.6485 108.656 25.7237 108.66 25.8787L108.679 26.4833C108.694 26.9928 108.631 27.4562 108.488 27.8735C108.318 28.3704 108.037 28.802 107.643 29.1682C107.564 29.2412 107.482 29.3102 107.397 29.3753C107.306 29.4455 107.211 29.5112 107.113 29.5723C106.501 29.9529 105.757 30.1566 104.881 30.1832C103.609 30.2218 102.527 29.8357 101.633 29.0249C101.395 28.8009 101.189 28.5569 101.013 28.2931C100.553 27.6012 100.308 26.7727 100.279 25.8075L99.9962 16.5057C99.9548 15.1415 100.294 14.045 101.014 13.2162C101.732 12.3565 102.712 11.9077 103.952 11.8701C105.223 11.8314 106.227 12.1734 106.962 12.8958C107.545 13.4441 107.915 14.0794 108.073 14.8018C108.123 15.0301 108.152 15.2672 108.159 15.5129C108.168 15.792 108.404 15.9244 108.869 15.9103L116.171 15.6885C116.388 15.6819 116.557 15.6147 116.677 15.4869C116.798 15.3591 116.854 15.1867 116.848 14.9697L116.846 14.9232C116.843 14.8101 116.838 14.6976 116.831 14.5857C116.716 12.7328 116.123 11.0324 115.052 9.4846C113.947 7.84231 112.403 6.57024 110.42 5.6684C108.437 4.73556 106.205 4.30681 103.724 4.38216C101.182 4.4594 98.9496 5.03928 97.0273 6.12181C95.136 7.2034 93.6761 8.69085 92.6474 10.5842C92.2925 11.2456 92.0054 11.9422 91.7859 12.6739C91.3877 14.0015 91.2123 15.4448 91.2596 17.0039L91.5267 25.794C91.574 27.3531 91.8369 28.7896 92.3154 30.1034ZM30.7258 62.6634L36.2991 53.0441C36.4757 52.7284 36.75 52.5649 37.1221 52.5536L44.3774 52.3332C44.5735 52.3272 44.7332 52.373 44.8564 52.4706C44.8696 52.4811 44.8823 52.4921 44.8947 52.5037C45.0225 52.6239 45.0897 52.7926 45.0963 53.0096L46.0429 84.1704C46.0495 84.3875 45.9926 84.5599 45.8724 84.6877C45.8608 84.7 45.8487 84.7118 45.8362 84.723C45.7191 84.8279 45.5625 84.8833 45.3664 84.8893L38.018 85.1125C37.801 85.1191 37.6286 85.0622 37.5008 84.942C37.373 84.8217 37.3058 84.6531 37.2992 84.436L36.7864 67.5534C36.7826 67.4294 36.7497 67.3683 36.6877 67.3702C36.6247 67.3411 36.5637 67.374 36.5045 67.4689L33.4987 72.7274C33.393 72.9164 33.2523 73.0508 33.0765 73.1307C32.9586 73.1843 32.825 73.2134 32.6757 73.2179L29.141 73.3253C28.9917 73.3298 28.8566 73.3089 28.7357 73.2626C28.5554 73.1935 28.4067 73.0679 28.2897 72.8856L24.9703 67.8192C24.9055 67.7281 24.8425 67.699 24.7815 67.7319C24.7195 67.7338 24.6903 67.7967 24.6941 67.9207L25.207 84.8034C25.2136 85.0204 25.1567 85.1928 25.0365 85.3206C24.9162 85.4484 24.7476 85.5156 24.5305 85.5222L17.1822 85.7454C16.9651 85.752 16.7927 85.6952 16.6649 85.5749C16.5371 85.4547 16.4699 85.286 16.4633 85.069L15.5167 53.9082C15.5101 53.6911 15.567 53.5187 15.6872 53.3909C15.8075 53.2631 15.9761 53.196 16.1932 53.1894L23.4485 52.969C23.8206 52.9577 24.1043 53.1042 24.2998 53.4086L30.4467 62.6719C30.5454 62.8551 30.6384 62.8522 30.7258 62.6634ZM30.3698 55.5432L27.5412 51.2806C26.5819 49.8114 25.0034 49.0424 23.3308 49.0932L16.0754 49.3136C15.0891 49.3436 13.8479 49.6875 12.8634 50.7336C11.8789 51.7798 11.611 53.0396 11.641 54.0259L12.5876 85.1867C12.6176 86.173 12.9614 87.4143 14.0076 88.3988C15.0538 89.3832 16.3136 89.6511 17.2999 89.6212L24.6483 89.3979C25.6346 89.368 26.8758 89.0241 27.8603 87.9779C28.8448 86.9318 29.1127 85.6719 29.0827 84.6857L28.8552 77.1973C28.9889 77.2039 29.1235 77.2051 29.2588 77.201L32.7934 77.0936C32.9287 77.0895 33.0629 77.0801 33.196 77.0655L33.4235 84.5538C33.4535 85.5401 33.7973 86.7813 34.8435 87.7658C35.8897 88.7503 37.1495 89.0182 38.1358 88.9882L45.4842 88.765C46.24 88.742 47.1456 88.5347 47.9707 87.9682C48.8285 88.4836 49.7451 88.6355 50.5009 88.6126L72.6856 87.9387C73.5645 87.912 74.646 87.636 75.5678 86.8357C77.0034 87.737 78.6408 88.1302 80.3388 88.0786C82.5525 88.0113 84.5699 87.16 86.1228 85.5098C87.6758 83.8595 88.4031 81.7942 88.3358 79.5805C88.2689 77.3762 87.4607 75.2991 85.7392 73.7253C84.0748 72.1726 81.9961 71.5179 79.8377 71.5835C77.9956 71.6395 76.2565 72.2136 74.8051 73.3756C73.9323 72.8346 72.9939 72.6759 72.2226 72.6993L70.994 72.7366C71.3423 71.9973 71.449 71.2395 71.4295 70.5975L71.2458 64.5514C71.2304 64.0455 71.1325 63.4726 70.8995 62.9016L71.924 62.8705C72.9103 62.8405 74.1516 62.4967 75.1361 61.4505C76.1205 60.4043 76.3884 59.1445 76.3585 58.1582L76.1734 52.0655C76.1434 51.0793 75.7996 49.838 74.7534 48.8536C73.7072 47.8691 72.4474 47.6012 71.4611 47.6311L49.2765 48.305C48.5206 48.328 47.615 48.5353 46.79 49.1019C45.9321 48.5865 45.0156 48.4345 44.2597 48.4574L37.0043 48.6779C35.3317 48.7287 33.8027 49.5921 32.9343 51.1169L30.3698 55.5432ZM48.9244 52.3471C49.0415 52.2422 49.1981 52.1867 49.3942 52.1808L71.5788 51.5068C71.7959 51.5003 71.9683 51.5571 72.0961 51.6773C72.2239 51.7976 72.2911 51.9662 72.2977 52.1833L72.4827 58.2759C72.4893 58.493 72.4325 58.6654 72.3123 58.7932C72.192 58.921 72.0234 58.9882 71.8063 58.9947L57.9002 59.4172C57.7452 59.4219 57.67 59.5018 57.6747 59.6568L57.8075 64.0286C57.8123 64.1836 57.8921 64.2588 58.0471 64.2541L66.6513 63.9927C66.8683 63.9861 67.0407 64.043 67.1685 64.1632C67.2963 64.2835 67.3635 64.4521 67.3701 64.6691L67.5537 70.7153C67.5603 70.9323 67.5035 71.1047 67.3833 71.2325C67.263 71.3603 67.0944 71.4275 66.8773 71.4341L58.2732 71.6955C58.1182 71.7002 58.043 71.7801 58.0477 71.9351L58.1947 76.772C58.1994 76.927 58.2792 77.0022 58.4343 76.9975L72.3404 76.575C72.3706 76.5741 72.4 76.5744 72.4286 76.576C72.6046 76.5855 72.7476 76.642 72.8576 76.7455C72.9854 76.8658 73.0526 77.0344 73.0592 77.2515L73.2443 83.3441C73.2509 83.5611 73.194 83.7336 73.0738 83.8614C73.0198 83.9187 72.9561 83.9638 72.8827 83.9967C72.7925 84.0372 72.6875 84.0593 72.5678 84.0629L50.3832 84.7369C50.1871 84.7428 50.0274 84.697 49.9042 84.5994C49.891 84.589 49.8783 84.578 49.8659 84.5664C49.7381 84.4461 49.671 84.2775 49.6644 84.0604L48.7178 52.8996C48.7112 52.6826 48.768 52.5101 48.8883 52.3823C48.8999 52.37 48.9119 52.3582 48.9244 52.3471ZM76.9012 76.6929C76.8772 76.7164 76.8533 76.7403 76.8296 76.7645C76.7146 76.8868 76.6084 77.0141 76.5112 77.1466C75.9476 77.9142 75.6827 78.8533 75.7165 79.9638C75.7551 81.2351 76.1902 82.277 77.0218 83.0897C77.0537 83.1186 77.0859 83.147 77.1184 83.1748C77.9628 83.8974 78.997 84.24 80.2211 84.2029C81.4613 84.1652 82.4873 83.7151 83.299 82.8525C84.1108 81.9899 84.4978 80.9385 84.4601 79.6982C84.4205 78.396 83.9699 77.3545 83.1083 76.5738C82.2777 75.7921 81.2267 75.4206 79.9555 75.4592C78.7213 75.4967 77.7032 75.9079 76.9012 76.6929Z" fill="#FF5800"/>
</g>
<path d="M15.0393 40.0361C14.8533 40.0417 14.6814 40.0004 14.5235 39.9121C14.3647 39.7928 14.267 39.6406 14.2303 39.4555L4.07499 8.57439C4.0421 8.51332 4.02425 8.43628 4.02142 8.34326C4.01012 7.97119 4.22151 7.77856 4.65559 7.76537L12.5621 7.52519C12.9651 7.51295 13.2193 7.70695 13.3246 8.1072L17.7384 23.1489C17.7722 23.241 17.8206 23.3016 17.8836 23.3307C17.9456 23.3289 17.9902 23.2654 18.0175 23.1405L20.6729 7.88397C20.7537 7.47807 21.0111 7.26852 21.4452 7.25534L28.2355 7.04906C28.6386 7.03682 28.8927 7.23082 28.998 7.63107L32.9467 22.6869C32.9815 22.81 33.0299 22.8706 33.0919 22.8687C33.1539 22.8669 33.1986 22.8034 33.2258 22.6785L36.2534 7.41067C36.3341 7.00476 36.5761 6.79569 36.9791 6.78345L44.9321 6.54185C45.1802 6.53432 45.3531 6.60665 45.4508 6.75885C45.5786 6.87911 45.6152 7.0642 45.5607 7.31413L38.2288 38.7264C38.148 39.1323 37.9061 39.3414 37.503 39.3537L30.0616 39.5797C29.6276 39.5929 29.3579 39.3994 29.2526 38.9991L25.418 23.1019C25.3842 23.0098 25.3362 22.9647 25.2742 22.9666C25.2122 22.9685 25.1671 23.0164 25.1389 23.1103L22.6935 39.1518C22.6137 39.5887 22.3722 39.8133 21.9691 39.8256L15.0393 40.0361Z" fill="white"/>
<path d="M50.0382 38.9729C49.8212 38.9795 49.6488 38.9226 49.521 38.8024C49.3932 38.6821 49.326 38.5135 49.3194 38.2964L48.3728 7.1356C48.3662 6.91856 48.423 6.74615 48.5433 6.61836C48.6635 6.49057 48.8322 6.42337 49.0492 6.41678L56.3976 6.19355C56.6146 6.18696 56.7871 6.24379 56.9148 6.36405C57.0426 6.4843 57.1098 6.65295 57.1164 6.86999L58.063 38.0308C58.0696 38.2479 58.0128 38.4203 57.8925 38.5481C57.7723 38.6759 57.6036 38.743 57.3866 38.7496L50.0382 38.9729Z" fill="white"/>
<path d="M78.9581 6.20648C78.9515 5.98944 79.0083 5.81703 79.1286 5.68924C79.2488 5.56144 79.4175 5.49425 79.6345 5.48766L86.9829 5.26443C87.1999 5.25784 87.3723 5.31467 87.5001 5.43492C87.6279 5.55518 87.6951 5.72383 87.7017 5.94087L88.6483 37.1017C88.6549 37.3187 88.5981 37.4911 88.4778 37.6189C88.3576 37.7467 88.1889 37.8139 87.9719 37.8205L80.9491 38.0339C80.577 38.0452 80.2932 37.8986 80.0978 37.5942L70.1296 22.0695C70.0648 21.9783 70.0018 21.9492 69.9408 21.9821C69.8788 21.984 69.8496 22.0469 69.8534 22.171L70.4169 37.6555C70.4235 37.8726 70.3667 38.045 70.2464 38.1728C70.1261 38.3006 69.9575 38.3678 69.7405 38.3744L62.3921 38.5976C62.175 38.6042 62.0026 38.5473 61.8748 38.4271C61.747 38.3068 61.6799 38.1382 61.6733 37.9211L60.7267 6.76032C60.7201 6.54328 60.7769 6.37086 60.8972 6.24307C61.0174 6.11528 61.1861 6.04809 61.4031 6.04149L68.4259 5.82815C68.798 5.81685 69.0817 5.9634 69.2772 6.26781L79.1988 21.794C79.2637 21.8851 79.3271 21.9297 79.3891 21.9278C79.4502 21.8949 79.4788 21.8165 79.4751 21.6925L78.9581 6.20648Z" fill="white"/>
<path d="M104.736 37.6837C102.193 37.7609 99.9298 37.3176 97.9454 36.3538C95.9919 35.389 94.4443 33.9929 93.3026 32.1655C92.1919 30.3372 91.5998 28.2138 91.5264 25.7953L91.2593 17.0052C91.1859 14.5867 91.6484 12.4468 92.6471 10.5855C93.6758 8.69214 95.1357 7.20469 97.027 6.1231C98.9493 5.04057 101.182 4.46069 103.724 4.38345C106.205 4.3081 108.437 4.73685 110.42 5.66969C112.403 6.57153 113.946 7.8436 115.052 9.48589C116.188 11.1272 116.786 12.9401 116.846 14.9245L116.847 14.971C116.854 15.188 116.797 15.3604 116.677 15.4882C116.557 15.616 116.388 15.6832 116.171 15.6898L108.869 15.9116C108.404 15.9257 108.167 15.7933 108.159 15.5142C108.128 14.491 107.729 13.6187 106.962 12.8971C106.226 12.1747 105.223 11.8327 103.952 11.8713C102.711 11.909 101.732 12.3577 101.013 13.2175C100.294 14.0463 99.9545 15.1428 99.9959 16.507L100.278 25.8088C100.319 27.142 100.771 28.2145 101.633 29.0262C102.527 29.837 103.609 30.2231 104.88 30.1845C106.028 30.1496 106.948 29.8113 107.643 29.1695C108.367 28.4958 108.712 27.6008 108.678 26.4846L108.66 25.88C108.655 25.725 108.575 25.6498 108.42 25.6545L104.328 25.7789C104.111 25.7855 103.938 25.7286 103.81 25.6084C103.683 25.4881 103.615 25.3195 103.609 25.1024L103.439 19.5214C103.433 19.3043 103.489 19.1319 103.61 19.0041C103.73 18.8763 103.899 18.8092 104.116 18.8026L116.254 18.4338C116.471 18.4272 116.644 18.484 116.772 18.6043C116.899 18.7246 116.967 18.8932 116.973 19.1102L117.167 25.4819C117.236 27.7764 116.756 29.8392 115.725 31.6705C114.726 33.5009 113.264 34.9418 111.341 35.9934C109.449 37.0439 107.247 37.6074 104.736 37.6837Z" fill="white"/>
<path d="M36.2987 53.0454C36.4754 52.7297 36.7497 52.5662 37.1218 52.5549L44.3771 52.3345C44.5942 52.3279 44.7666 52.3847 44.8944 52.505C45.0222 52.6252 45.0894 52.7939 45.096 53.0109L46.0426 84.1717C46.0492 84.3888 45.9923 84.5612 45.8721 84.689C45.7518 84.8168 45.5832 84.884 45.3661 84.8905L38.0178 85.1138C37.8007 85.1204 37.6283 85.0635 37.5005 84.9433C37.3727 84.823 37.3055 84.6544 37.2989 84.4373L36.7861 67.5547C36.7823 67.4307 36.7494 67.3696 36.6874 67.3715C36.6244 67.3424 36.5634 67.3752 36.5042 67.4701L33.4984 72.7287C33.3218 73.0444 33.0475 73.2079 32.6754 73.2192L29.1407 73.3266C28.7687 73.3379 28.4849 73.1913 28.2894 72.8869L24.97 67.8205C24.9052 67.7294 24.8422 67.7003 24.7812 67.7332C24.7192 67.7351 24.69 67.798 24.6938 67.922L25.2067 84.8047C25.2133 85.0217 25.1564 85.1941 25.0362 85.3219C24.9159 85.4497 24.7473 85.5169 24.5302 85.5235L17.1819 85.7467C16.9648 85.7533 16.7924 85.6965 16.6646 85.5762C16.5368 85.456 16.4696 85.2873 16.463 85.0703L15.5164 53.9095C15.5098 53.6924 15.5667 53.52 15.6869 53.3922C15.8072 53.2644 15.9758 53.1972 16.1929 53.1906L23.4482 52.9702C23.8203 52.9589 24.1041 53.1055 24.2995 53.4099L30.4464 62.6731C30.5451 62.8564 30.6381 62.8535 30.7255 62.6647L36.2987 53.0454Z" fill="white"/>
<path d="M72.4824 58.2772C72.489 58.4943 72.4322 58.6667 72.312 58.7945C72.1917 58.9223 72.023 58.9894 71.806 58.996L57.8999 59.4185C57.7449 59.4232 57.6697 59.5031 57.6744 59.6581L57.8072 64.0299C57.8119 64.1849 57.8918 64.2601 58.0468 64.2554L66.651 63.994C66.868 63.9874 67.0404 64.0442 67.1682 64.1645C67.296 64.2848 67.3632 64.4534 67.3698 64.6704L67.5534 70.7166C67.56 70.9336 67.5032 71.106 67.383 71.2338C67.2627 71.3616 67.094 71.4288 66.877 71.4354L58.2729 71.6968C58.1179 71.7015 58.0427 71.7814 58.0474 71.9364L58.1944 76.7733C58.1991 76.9283 58.2789 77.0035 58.434 76.9988L72.3401 76.5763C72.5571 76.5697 72.7295 76.6266 72.8573 76.7468C72.9851 76.8671 73.0523 77.0357 73.0589 77.2528L73.244 83.3454C73.2506 83.5624 73.1937 83.7349 73.0735 83.8626C72.9532 83.9904 72.7846 84.0576 72.5675 84.0642L50.3829 84.7381C50.1658 84.7447 49.9934 84.6879 49.8656 84.5677C49.7378 84.4474 49.6707 84.2788 49.6641 84.0617L48.7175 52.9009C48.7109 52.6838 48.7677 52.5114 48.888 52.3836C49.0082 52.2558 49.1769 52.1887 49.3939 52.1821L71.5785 51.5081C71.7956 51.5015 71.968 51.5584 72.0958 51.6786C72.2236 51.7989 72.2908 51.9675 72.2974 52.1846L72.4824 58.2772Z" fill="white"/>
<path d="M80.2208 84.2041C78.9496 84.2428 77.8831 83.8717 77.0215 83.091C76.1899 82.2783 75.7548 81.2364 75.7162 79.9651C75.6766 78.6629 76.0477 77.5965 76.8293 76.7658C77.642 75.9342 78.6839 75.4991 79.9552 75.4605C81.2264 75.4219 82.2773 75.7934 83.108 76.5751C83.9696 77.3558 84.4202 78.3973 84.4598 79.6995C84.4975 80.9398 84.1104 81.9912 83.2987 82.8538C82.487 83.7163 81.461 84.1665 80.2208 84.2041Z" fill="white"/>
<defs>
<filter id="filter0_d_2033_49925" x="0.143799" y="0.496094" width="122.241" height="91.1274" filterUnits="userSpaceOnUse" color-interpolation-filters="sRGB">
<feFlood flood-opacity="0" result="BackgroundImageFix"/>
<feColorMatrix in="SourceAlpha" type="matrix" values="0 0 0 0 0 0 0 0 0 0 0 0 0 0 0 0 0 0 127 0" result="hardAlpha"/>
<feOffset dx="1.33333" dy="2"/>
<feComposite in2="hardAlpha" operator="out"/>
<feColorMatrix type="matrix" values="0 0 0 0 1 0 0 0 0 0.345098 0 0 0 0 0 0 0 0 1 0"/>
<feBlend mode="normal" in2="BackgroundImageFix" result="effect1_dropShadow_2033_49925"/>
<feBlend mode="normal" in="SourceGraphic" in2="effect1_dropShadow_2033_49925" result="shape"/>
</filter>
</defs>
</svg>
